P2
# Created by GIMP version 2.10.12 PNM plug-in
16 16
255
0 0 0 0 0 0 0 0 255 255 255 255 255 255 255 255
0 0 0 0 0 0 0 0 255 255 255 255 255 255 255 255
0 0 0 0 0 0 0 0 255 255 255 255 255 255 255 255
0 0 0 0 0 0 0 0 255 255 255 255 255 255 255 255
0 0 0 0 0 0 0 0 255 255 255 255 255 255 255 255
0 0 0 0 0 0 0 0 255 255 255 255 255 255 255 255
0 0 0 0 0 0 0 0 255 255 255 255 255 255 255 255
0 0 0 0 0 0 0 0 255 255 255 255 255 255 255 255
255 255 255 255 255 255 255 255 0 0 0 0 0 0 0 0
255 255 255 255 255 255 255 255 0 0 0 0 0 0 0 0
255 255 255 255 255 255 255 255 0 0 0 0 0 0 0 0
255 255 255 255 255 255 255 255 0 0 0 0 0 0 0 0
255 255 255 255 255 255 255 255 0 0 0 0 0 0 0 0
255 255 255 255 255 255 255 255 0 0 0 0 0 0 0 0
255 255 255 255 255 255 255 255 0 0 0 0 0 0 0 0
255 255 255 255 255 255 255 255 0 0 0 0 0 0 0 0